<?xml version="1.0" encoding="UTF-8" standalone="no"?>
<svg
   xmlns:dc="http://purl.org/dc/elements/1.1/"
   xmlns:cc="http://creativecommons.org/ns#"
   xmlns:rdf="http://www.w3.org/1999/02/22-rdf-syntax-ns#"
   xmlns:svg="http://www.w3.org/2000/svg"
   xmlns="http://www.w3.org/2000/svg"
   version="1.1"
   id="svg1288"
   viewBox="0 0 844.52097 544.59508"
   height="544.59508"
   width="844.52097"
   data-name="Layer 1">
  <metadata
     id="metadata1393">
    <rdf:RDF>
      <cc:Work
         rdf:about="">
        <dc:format>image/svg+xml</dc:format>
        <dc:type
           rdf:resource="http://purl.org/dc/dcmitype/StillImage" />
      </cc:Work>
    </rdf:RDF>
  </metadata>
  <defs
     id="defs1391" />
  <g
     transform="matrix(0.53613004,0,0,0.50542941,140.1498,51.610192)"
     id="g1395">
    <path
       style="fill:#f2f2f2"
       d="m 931.14105,699.03863 13.887,0.36551 a 44.822,44.822 0 0 0 6.7571,-20.48 c -8.89865,9.43551 -24.595,7.065 -36.08827,13.07507"
       transform="translate(-177.73951,-177.70246)"
       id="path1290" />
    <path
       style="fill:#f2f2f2"
       d="m 923.49136,677.89435 12.5925,-5.8662"
       transform="translate(-177.73951,-177.70246)"
       id="path1292" />
    <polygon
       style="fill:#a0616a"
       points="712.514,501.092 725.085,501.092 725.084,533.946 725.084,533.946 716.566,533.946 "
       id="polygon1294" />
    <path
       style="fill:#2f2e41"
       d="m 902.59641,708.86507 -9.08836,-3.69172 -0.26812,-0.11 -5.01854,3.80174"
       transform="translate(-177.73951,-177.70246)"
       id="path1296" />
    <polygon
       style="fill:#a0616a"
       points="681.367,495.014 692.202,488.639 708.863,516.955 708.863,516.955 701.522,521.275 "
       id="polygon1298" />
    <path
       style="fill:#2f2e41"
       d="m 891.67247,698.9861 -0.9968,-1.69808 -3.60923,-6.13224 -1.87683,1.10682 -0.19247,0.11 -9.7071,1.42991 -0.28877,0.0413 -2.39239,5.82287 A 10.68981,10.68981 0 0 0 868.814,714.303 l 0.17875,0.2956 23.66966,-13.92815 z"
       transform="translate(-177.73951,-177.70246)"
       id="path1300" />
    <path
       style="fill:#2f2e41"
       d="m 913.61121,510.79661 c 3.9935,12.04439 3.5713,25.11823 -0.9599,39.15 l -1.18267,48.23631 -3.79864,30.42667 a 52.09865,52.09865 0 0 1 3.46672,18.68115 c -0.0161,16.74127 -1.14179,40.52495 -6.84893,51.6977 l -13.50579,0 -3.04874,-49.75469 -3.63816,-25.01587 -0.44852,-26.80669 -0.39118,-23.37977 -14.685,21.47379 -14.26985,20.86666 14.18354,23.92474 12.3745,38.49844 -13.062,10.99955 -14.81769,-28.09247 -7.18142,-8.34355 -19.60394,-42.43815 1.76178,-5.90879 a 139.78376,139.78376 0 0 1 15.66252,-34.53159 l 0,0 19.49945,-45.25659 z"
       transform="translate(-177.73951,-177.70246)"
       id="path1302" />
    <path
       style="fill:#ffffff"
       d="m 688.66247,519.79661 -268.01014,0"
       transform="translate(-177.73951,-177.70246)"
       id="path1304" />
    <path
       style="fill:#f0f0f0"
       d="m 688.66229,520.79661 -268.00977,0"
       transform="translate(-177.73951,-177.70246)"
       id="path1306" />
    <path
       style="fill:#f0f0f0"
       d="m 413.205,480.79661 0,30.93379 a 7.45828,7.45828 0 0 0 7.44716,7.44716 l 268.01046,0 a 7.45828,7.45828 0 0 0 7.44716,-7.44716 l 0,-30.93379 z"
       transform="translate(-177.73951,-177.70246)"
       id="path1308" />
    <rect
       style="fill:#f0f0f0"
       x="554.65076"
       y="224.09029"
       width="1.99962"
       height="333.5596"
       transform="matrix(0.53919197,-0.84218289,0.84218289,0.53919197,-250.87539,470.37299)"
       id="rect1310" />
    <path
       style="fill:#cacaca"
       d="m 875.60125,214.25494 -632.32336,0 a 1.01559,1.01559 0 0 1 0,-2.03069 l 632.32336,0 a 1.01559,1.01559 0 0 1 0,2.03069 z"
       transform="translate(-177.73951,-177.70246)"
       id="path1312" />
    <ellipse
       style="fill:#3f3d56"
       cx="87.893471"
       cy="11.16881"
       rx="10.92534"
       ry="11.16881"
       id="ellipse1314" />
    <ellipse
       style="fill:#3f3d56"
       cx="125.63554"
       cy="11.16881"
       rx="10.92534"
       ry="11.16881"
       id="ellipse1316" />
    <ellipse
       style="fill:#3f3d56"
       cx="163.37762"
       cy="11.16881"
       rx="10.92534"
       ry="11.16881"
       id="ellipse1318" />
    <path
       style="fill:#3f3d56"
       d="m 852.98423,180.47076 -26.81,0 a 2.0304,2.0304 0 0 0 0,4.06 l 26.81,0 a 2.0304,2.0304 0 0 0 0,-4.06 z"
       transform="translate(-177.73951,-177.70246)"
       id="path1320" />
    <path
       style="fill:#3f3d56"
       d="m 852.98423,188.09076 -26.81,0 a 2.0304,2.0304 0 0 0 0,4.06 l 26.81,0 a 2.0304,2.0304 0 0 0 0,-4.06 z"
       transform="translate(-177.73951,-177.70246)"
       id="path1322" />
    <path
       style="fill:#3f3d56"
       d="m 852.98423,195.70074 -26.81,0 a 2.0304,2.0304 0 0 0 0,4.06 l 26.81,0 a 2.0304,2.0304 0 0 0 0,-4.06 z"
       transform="translate(-177.73951,-177.70246)"
       id="path1324" />
    <path
       style="fill:#a0616a"
       d="m 779.50328,452.98922 a 6.6176,6.6176 0 0 0 10.13608,0.47785 l 21.56551,9.37924 -2.1006,-12.03868 -20.15693,-7.061"
       transform="translate(-177.73951,-177.70246)"
       id="path1326" />
    <path
       style="fill:#3f3d56"
       d="m 799.12472,446.188 41.19723,5.33928 42.485,-25.59256 a 18.78361,18.78361 0 0 1 26.80668,8.35028 l 0,0"
       transform="translate(-177.73951,-177.70246)"
       id="path1328" />
    <path
       style="fill:#3f3d56"
       d="m 859.28737,518.07907 3.42446,-8.561 -2.26477,-7.36036 6.71034,-73.36111 0,0 0.99127,-11.11841 0.0668,-8.288 22.946,-0.55964 2.48848,6.31935 4.924,2.9442 a 35.64637,35.64637 0 0 1 17.30724,31.18056 l -0.88947,48.12064 2.28984,4.58023"
       transform="translate(-177.73951,-177.70246)"
       id="path1330" />
    <circle
       style="fill:#a0616a"
       cx="699.84772"
       cy="202.42136"
       r="20.848801"
       id="circle1332" />
    <path
       style="fill:#2f2e41"
       d="m 899.29724,384.66879 c 0.62184,-2.6197 0.33635,-6.30613 -0.0151,-8.94389"
       transform="translate(-177.73951,-177.70246)"
       id="path1334" />
    <path
       style="fill:#a0616a"
       d="M 938.82557,555.89408"
       transform="translate(-177.73951,-177.70246)"
       id="path1336" />
    <path
       style="fill:#3f3d56"
       d="m 926.02574,539.541 -8.31682,-40.70074 -37.993,-31.88244"
       transform="translate(-177.73951,-177.70246)"
       id="path1338" />
    <path
       style="fill:#cccccc"
       d="m 1021.0698,722.29754 -347.988,0 a 1.19069,1.19069 0 1 1 0,-2.38137 l 347.988,0 a 1.19069,1.19069 0 1 1 0,2.38137 z"
       transform="translate(-177.73951,-177.70246)"
       id="path1340" />
    <path
       style="fill:#6c63ff"
       d="m 796.17743,528.6544 -158.13972,0"
       transform="translate(-177.73951,-177.70246)"
       id="path1342" />
    <path
       style="fill:#e4e4e4"
       d="m 781.11961,559.43533 -128.024,0 a 4.98795,4.98795 0 1 1 0,-9.97589 l 128.024,0 c 6.43254,-0.0898 6.49688,10.06649 0,9.97589 z"
       transform="translate(-177.73951,-177.70246)"
       id="path1344" />
    <path
       style="fill:#e4e4e4"
       d="m 781.11961,582.29676 -128.024,0 a 4.98795,4.98795 0 0 1 0,-9.9759 l 128.024,0 c 6.43254,-0.0898 6.49688,10.0665 0,9.9759 z"
       transform="translate(-177.73951,-177.70246)"
       id="path1346" />
    <path
       style="fill:#e4e4e4"
       d="m 781.11961,605.15818 -128.024,0 a 4.98795,4.98795 0 1 1 0,-9.97589 l 128.024,0 c 6.43254,-0.0898 6.49688,10.06649 0,9.97589 z"
       transform="translate(-177.73951,-177.70246)"
       id="path1348" />
    <path
       style="fill:#f2f2f2"
       d="m 386.63821,642.09329 13.24162,-4.20034"
       transform="translate(-177.73951,-177.70246)"
       id="path1350" />
    <path
       style="fill:#f2f2f2"
       d="m 372.4887,624.6179 9.97854,-9.665"
       transform="translate(-177.73951,-177.70246)"
       id="path1352" />
    <path
       style="fill:#ffb6b6"
       d="M 399.1658,444.66928"
       transform="translate(-177.73951,-177.70246)"
       id="path1354" />
    <path
       style="fill:#6c63ff"
       d="m 327.75776,366.97811 c 0,0 -3.40875,2.04312 2.26484,8.26467 4.54215,4.98081 24.36293,28.92837 32.27447,33.9282 -0.86281,2.49126 21.02175,26.34234 23.32251,27.863 l 12.164,-15.17955 c -0.6949,-4.35213 -24.62925,-25.12984 -26.27763,-24.60133 l -7.6317,-9.48634 -17.29159,-29.00363 -16.38708,6.69437 z"
       transform="translate(-177.73951,-177.70246)"
       id="path1356" />
    <polygon
       style="fill:#ffb6b6"
       points="125.417,445.078 112.034,445.078 112.035,480.052 112.035,480.052 121.102,480.052 "
       id="polygon1358" />
    <path
       style="fill:#2f2e41"
       d="m 286.81481,651.544 14.48631,-0.86463 0,6.20656 13.77254,9.51181"
       transform="translate(-177.73951,-177.70246)"
       id="path1360" />
    <polygon
       style="fill:#ffb6b6"
       points="176.35,445.078 162.968,445.078 162.968,480.052 162.968,480.052 172.035,480.052 "
       id="polygon1362" />
    <path
       style="fill:#2f2e41"
       d="m 337.74786,651.544 14.48631,-0.86463 0,6.20656 13.77254,9.51181"
       transform="translate(-177.73951,-177.70246)"
       id="path1364" />
    <path
       style="fill:#2f2e41"
       d="m 285.86178,627.59413 0.0986,0 1.74384,-56.867 a 14.87005,14.87005 0 0 1 0.19511,-14.05194 l 0.24966,-0.45193 -0.64734,-3.00072 a 19.11352,19.11352 0 0 1 1.09226,-11.50324 l 1.62684,-53.04638 c -5.812,-37.66677 21.88634,-62.23162 21.88634,-62.23162 l -5.06161,-21.29269 50.11155,-4.929 -3.5574,26.22169 8.908,30.60567 c 5.88895,57.374 4.8204,113.28328 -4.52452,167.44994 l 0.25476,0.12883 c 0.91734,0.31665 1.31077,1.58741 0.879,2.83844 -0.43177,1.25103 -1.52548,2.00849 -2.44281,1.69184 l -21.91283,-0.76217 c -0.91733,-0.31657 -1.31091,-1.58741 -0.879,-2.83844 0.43175,-1.251 1.52548,-2.00842 2.44281,-1.69184 l 1.48994,0.75359 -3.17752,-54.87452 0.35263,-10.02317 -0.72647,-11.3711 -3.35883,-51.14711 -12.71368,62.89653 -12.98639,68.1293"
       transform="translate(-177.73951,-177.70246)"
       id="path1366" />
    <path
       style="fill:#6c63ff"
       d="m 347.397,351.582 -9.85494,-5.913 -19.70988,-1.971 -17.42074,8.871 0.1746,27.09955 11.05157,28.10695 43.05489,8.87405 5.02317,-24.70113 c 0,0 12.81142,-17.20734 -0.98549,-27.06228 z"
       transform="translate(-177.73951,-177.70246)"
       id="path1368" />
    <path
       style="fill:#ffb6b6"
       d="M 305.21219,468.58869"
       transform="translate(-177.73951,-177.70246)"
       id="path1370" />
    <path
       style="fill:#6c63ff"
       d="m 301.01556,352.84092 c 0,0 -3.93229,-0.57536 -3.47683,7.83236 0.36464,6.731 -1.36843,48.21939 1.593,57.09749 -2.24467,1.38285 -2.36413,35.15015 -1.54511,37.78361 l 19.0247,-4.05483 c 2.21628,-3.80947 0.75711,-38.72087 -0.85365,-39.35487 l 0.0946,-12.17475 4.20458,-40.13088 -16.19145,-6.63269 z"
       transform="translate(-177.73951,-177.70246)"
       id="path1372" />
    <path
       style="fill:#6c63ff"
       d="M 398.24783,474.90117"
       transform="translate(-177.73951,-177.70246)"
       id="path1374" />
    <path
       style="fill:#ffffff"
       d="m 404.8066,447.79526 19.716,0 a 1.23226,1.23226 0 0 0 0,-2.46451 l -19.716,0 a 1.232255,1.232255 0 0 0 0,2.46451 z"
       transform="translate(-177.73951,-177.70246)"
       id="path1376" />
    <path
       style="fill:#ffffff"
       d="m 404.8066,457.65327 19.716,0 a 1.23226,1.23226 0 0 0 0,-2.46451 l -19.716,0 a 1.23226,1.23226 0 0 0 0,2.46451 z"
       transform="translate(-177.73951,-177.70246)"
       id="path1378" />
    <path
       style="fill:#ffffff"
       d="m 404.8066,467.51127 19.716,0 a 1.23225,1.23225 0 0 0 0,-2.4645 l -19.716,0 a 1.23225,1.23225 0 0 0 0,2.4645 z"
       transform="translate(-177.73951,-177.70246)"
       id="path1380" />
    <path
       style="fill:#cccccc"
       d="M 460.40956,673.10754"
       transform="translate(-177.73951,-177.70246)"
       id="path1382" />
    <path
       style="fill:#2f2e41"
       id="a0ad7a78-ce9c-4e5a-964d-79d0781968c2-462"
       data-name="a1ca5f83-7fa1-45b1-9d3b-bf096f25c0e5"
       d="m 346.15958,333.62371 0,-18.36137"
       transform="translate(-177.73951,-177.70246)" />
    <circle
       style="fill:#ffb7b7"
       cx="151.88324"
       cy="139.61473"
       r="18.416889"
       id="circle1385" />
    <path
       style="fill:#2f2e41"
       d="m 310.34868,322.1453 c 0.16692,-0.0264 0.33385,-0.0616 0.50077,-0.0879 2.87277,-0.5095 5.74549,-1.01021 8.60947,-1.52861 l 0.26359,-6.49216 3.47011,5.81568 c 7.91546,2.62677 15.32136,1.14212 22.288,-2.13474 a 62.923,62.923 0 0 0 6.67677,-3.68094"
       transform="translate(-177.73951,-177.70246)"
       id="path1387" />
  </g>
  <g
     id="g843-17-0"
     transform="matrix(0.22685961,0,0,0.27290857,305.07816,151.2337)">
    <path
       d="M 67.099998,3.3 56.700001,33.5 82.800003,13 60.799999,37.150002 93.449997,27.6 63,42.099998 l 34,2.600003 -34,2.599998 30.449997,14.5 L 60.799999,52.200001 100.6,93.349998 79.099998,98 93.050003,131.5 81.449997,136.14999 67.5,102.35 l -19.549999,12.6 0,-31.850002 -2.299999,-25 L 29.9,85.949997 40.299999,55.900002 14.2,76.400002 36.200001,52.200001 3.6500001,61.799999 34,47.299999 0,44.700001 34,42.099998 3.6500001,27.6 36.200001,37.150002 14.2,13 40.299999,33.5 29.9,3.3 45.650002,31.299999 48.650002,0 51.349998,31.299999 67.099998,3.3"
       transform="matrix(1.0497025,0,0,0.96217413,263.24274,30)"
       id="path777-1-9"
       style="fill:#54de00;fill-opacity:1" />
    <text
       xml:space="preserve"
       style="font-style:normal;font-variant:normal;font-weight:bold;font-stretch:normal;font-size:290.85443115px;font-family:sans-serif;-inkscape-font-specification:'sans-serif Bold';text-align:center;writing-mode:lr-tb;text-anchor:middle;fill:#0e23a4;fill-opacity:1;stroke:none;stroke-width:1px;stroke-linecap:butt;stroke-linejoin:miter;stroke-opacity:1"
       x="165.20784"
       y="287.45807"
       id="text789-1-4"
       transform="scale(1.0856747,0.92108623)"><tspan
         id="tspan791-5-78"
         x="165.20784"
         y="287.45807">G</tspan></text>
    <text
       xml:space="preserve"
       style="font-style:normal;font-variant:normal;font-weight:bold;font-stretch:normal;font-size:243.50003052px;font-family:sans-serif;-inkscape-font-specification:'sans-serif Bold';text-align:center;writing-mode:lr-tb;text-anchor:middle;fill:#9b8ff5;fill-opacity:1;stroke:none;stroke-width:1px;stroke-linecap:butt;stroke-linejoin:miter;stroke-opacity:1"
       x="150.62569"
       y="443.62378"
       id="text793-2-35"
       transform="matrix(0.78193256,-0.62295398,0.62327173,0.7823314,0,0)"><tspan
         id="tspan795-7-1"
         x="150.62569"
         y="443.62378">B</tspan></text>
  </g>
</svg>
